<?xml version="1.0" encoding="UTF-8" standalone="no"?>
<svg
   id="svg8"
   version="1.1"
   viewBox="0 0 18 18"
   sodipodi:docname="breeze-check-checked-symbolic.svg"
   inkscape:version="1.1.2 (0a00cf5339, 2022-02-04, custom)"
   xmlns:inkscape="http://www.inkscape.org/namespaces/inkscape"
   xmlns:sodipodi="http://sodipodi.sourceforge.net/DTD/sodipodi-0.dtd"
   xmlns="http://www.w3.org/2000/svg"
   xmlns:svg="http://www.w3.org/2000/svg">
  <defs
     id="defs8" />
  <sodipodi:namedview
     id="namedview6"
     pagecolor="#505050"
     bordercolor="#eeeeee"
     borderopacity="1"
     inkscape:pageshadow="0"
     inkscape:pageopacity="0"
     inkscape:pagecheckerboard="0"
     showgrid="false"
     inkscape:zoom="35"
     inkscape:cx="9.0142857"
     inkscape:cy="9"
     inkscape:window-width="1920"
     inkscape:window-height="997"
     inkscape:window-x="0"
     inkscape:window-y="0"
     inkscape:window-maximized="1"
     inkscape:current-layer="svg8" />
  <rect
     id="rect2"
     class="warning"
     x="1.5"
     y="1.5"
     width="15"
     height="15"
     rx="2"
     ry="2"
     fill="#eff0f1" />
  <path
     id="path4"
     class="error"
     d="M 1.9285636,1.9495248 V 16.029973 H 15.997996 V 1.9495248 Z"
     fill="#3daee9"
     style="stroke-width:1.4075;opacity:0.5;fill:#3daee9;fill-opacity:0.5" />
  <path
     id="path6"
     class="error"
     d="m3.5 1c-1.385 0-2.5 1.115-2.5 2.5v11c0 1.385 1.115 2.5 2.5 2.5h11c1.385 0 2.5-1.115 2.5-2.5v-11c0-1.385-1.115-2.5-2.5-2.5zm0 1h11c0.831 0 1.5 0.669 1.5 1.5v11c0 0.831-0.669 1.5-1.5 1.5h-11c-0.831 0-1.5-0.669-1.5-1.5v-11c0-0.831 0.669-1.5 1.5-1.5z"
     color="#000000"
     color-rendering="auto"
     dominant-baseline="auto"
     fill="#7c8288"
     image-rendering="auto"
     shape-rendering="auto"
     solid-color="#000000"
     style="font-feature-settings:normal;font-variant-alternates:normal;font-variant-caps:normal;font-variant-ligatures:normal;font-variant-numeric:normal;font-variant-position:normal;isolation:auto;mix-blend-mode:normal;shape-padding:0;text-decoration-color:#000000;text-decoration-line:none;text-decoration-style:solid;text-indent:0;text-orientation:mixed;text-transform:none;white-space:normal" />
  <path
     class="fg"
     d="m 13.994892,4.01717 -6.586,6.586 -3.586,-3.5860003 -1.414,1.414 5,5.0000003 8,-8.0000002 z"
     fill="#000000"
     id="path7"
     sodipodi:nodetypes="ccccccc"
     style="opacity:0.75;stroke-width:1;stroke-miterlimit:4;stroke-dasharray:none" />
</svg>
