<?xml version="1.0" encoding="UTF-8" standalone="no"?>
<svg
   id="svg8"
   version="1.1"
   viewBox="0 0 18 18"
   sodipodi:docname="breeze-radio-checked-symbolic.svg"
   inkscape:version="1.1.2 (0a00cf5339, 2022-02-04, custom)"
   xmlns:inkscape="http://www.inkscape.org/namespaces/inkscape"
   xmlns:sodipodi="http://sodipodi.sourceforge.net/DTD/sodipodi-0.dtd"
   xmlns="http://www.w3.org/2000/svg"
   xmlns:svg="http://www.w3.org/2000/svg">
  <defs
     id="defs8" />
  <sodipodi:namedview
     id="namedview6"
     pagecolor="#505050"
     bordercolor="#eeeeee"
     borderopacity="1"
     inkscape:pageshadow="0"
     inkscape:pageopacity="0"
     inkscape:pagecheckerboard="0"
     showgrid="false"
     inkscape:zoom="35"
     inkscape:cx="9.0142857"
     inkscape:cy="9"
     inkscape:window-width="1920"
     inkscape:window-height="997"
     inkscape:window-x="0"
     inkscape:window-y="0"
     inkscape:window-maximized="1"
     inkscape:current-layer="svg8" />
  <path
     id="path2"
     class="warning"
     d="M 16.5,9 A 7.5,7.5 0 0 1 9,16.5 7.5,7.5 0 0 1 1.5,9 7.5,7.5 0 0 1 9,1.5 7.5,7.5 0 0 1 16.5,9 Z"
     fill="#f57900" />
  <path
     id="path4"
     class="error"
     d="m9 1a8 8 0 0 0-8 8 8 8 0 0 0 8 8 8 8 0 0 0 8-8 8 8 0 0 0-8-8zm0 1a7 7 0 0 1 7 7 7 7 0 0 1-7 7 7 7 0 0 1-7-7 7 7 0 0 1 7-7z"
     fill="#ff0404" />
  <path
     id="path6"
     class="error"
     d="M 9,2 C 5.1342526,2 2.000385,5.130938 2.000385,8.9930716 c 0,3.8621334 3.1338676,6.9930714 6.999615,6.9930714 3.865747,0 6.999615,-3.130938 6.999615,-6.9930714 C 15.999615,5.130938 12.865747,2 9,2 Z"
     color="#000000"
     color-rendering="auto"
     dominant-baseline="auto"
     fill="#ff0404"
     image-rendering="auto"
     shape-rendering="auto"
     solid-color="#000000"
     stroke-width="5.5835"
     style="font-variant-ligatures:normal;font-variant-position:normal;font-variant-caps:normal;font-variant-numeric:normal;font-variant-alternates:normal;font-feature-settings:normal;text-indent:0;text-decoration-line:none;text-decoration-style:solid;text-decoration-color:#000000;text-transform:none;text-orientation:mixed;white-space:normal;shape-padding:0;isolation:auto;mix-blend-mode:normal;fill:#3daee9;opacity:0.5;fill-opacity:0.5" />
  <g
     filter="url(#filter0_d_735_2307)"
     id="g4278"
     transform="translate(1.6738335,1.8157607)"
     style="opacity:0.75" />
  <circle
     class="fg"
     cx="8.9790401"
     cy="8.8826122"
     fill="#08293a"
     id="circle4274"
     style="stroke-width:0.999997;opacity:0.75"
     r="3"
     inkscape:transform-center-x="3.8089059"
     inkscape:transform-center-y="-1.3063241" />
</svg>
